<svg width="86" height="16" viewBox="0 0 86 16" fill="none" xmlns="http://www.w3.org/2000/svg">
<g clip-path="url(#clip0_1631_929)">
<path d="M0 0.00390625H16.125V15.9954H0V0.00390625ZM17.4688 0.00390625H33.5938V15.9954H17.4688V0.00390625ZM34.9375 0.00390625H51.0625V15.9954H34.9375V0.00390625ZM52.4062 0.00390625H68.5312V15.9954H52.4062V0.00390625ZM69.875 0.00390625H86V15.9954H69.875V0.00390625Z" fill="#00B67A"/>
<path d="M8.06172 10.7821L10.5141 10.1658L11.5387 13.2975L8.06172 10.7821ZM13.7055 6.73431H9.38867L8.06172 2.70312L6.73477 6.73431H2.41797L5.91172 9.23298L4.58477 13.2642L8.07852 10.7655L10.2285 9.23298L13.7055 6.73431ZM25.5305 10.7821L27.9828 10.1658L29.0074 13.2975L25.5305 10.7821ZM31.1742 6.73431H26.8574L25.5305 2.70312L24.2035 6.73431H19.8867L23.3805 9.23298L22.0535 13.2642L25.5473 10.7655L27.6973 9.23298L31.1742 6.73431ZM42.9992 10.7821L45.4516 10.1658L46.4762 13.2975L42.9992 10.7821ZM48.643 6.73431H44.3262L42.9992 2.70312L41.6723 6.73431H37.3555L40.8492 9.23298L39.5223 13.2642L43.016 10.7655L45.166 9.23298L48.643 6.73431ZM60.468 10.7821L62.9203 10.1658L63.9449 13.2975L60.468 10.7821ZM66.1117 6.73431H61.7949L60.468 2.70312L59.141 6.73431H54.8242L58.318 9.23298L56.991 13.2642L60.4848 10.7655L62.6348 9.23298L66.1117 6.73431ZM77.9367 10.7821L80.3891 10.1658L81.4137 13.2975L77.9367 10.7821ZM83.5805 6.73431H79.2637L77.9367 2.70312L76.6098 6.73431H72.293L75.7867 9.23298L74.4598 13.2642L77.9535 10.7655L80.1035 9.23298L83.5805 6.73431Z" fill="white"/>
</g>
<defs>
<clipPath id="clip0_1631_929">
<rect width="86" height="16" fill="white"/>
</clipPath>
</defs>
</svg>
